<?xml version="1.0" encoding="UTF-8"?>
<svg id="Capa_1" data-name="Capa 1" xmlns="http://www.w3.org/2000/svg" viewBox="0 0 957.59 956.08">
  <defs>
    <style>
      .cls-1 {
        fill: #fff;
        stroke: #fff;
        stroke-miterlimit: 10;
        stroke-width: 2px;
      }
    </style>
  </defs>
  <path class="cls-1" d="M956.59,690.41v.15c0,.4,0,.79-.01,1.17-.14,5.89-1.25,11.71-3.27,17.42-.27.8-.56,1.6-.89,2.38-.01.04-.02.06-.04.1-13.42,33.62-58.27,63.94-124.37,87.54-15.64,5.59-32.47,10.81-50.36,15.59-30.26,8.11-63.54,15.01-99.19,20.49h-.01c-16.91,2.6-34.37,4.88-52.28,6.81-46.41,5.02-95.95,7.73-147.38,7.73s-99.65-2.63-145.54-7.54c-17.93-1.9-35.41-4.16-52.34-6.74-36.14-5.48-69.86-12.43-100.5-20.63-17.97-4.79-34.87-10.01-50.58-15.63-64.45-22.96-108.73-52.32-123.45-84.89-.46-1.01-.89-2.02-1.27-3.05-2.71-6.84-4.09-13.83-4.09-20.92,0-.51.01-1,.02-1.51v-.2c.02-.59.06-1.17.1-1.76,3.54-55.56,92.37-104.13,224.57-131.73l-17.14,43.61-4.12,10.48c-50.78,10.77-91.32,24.46-117.44,40.04-21.18,12.64-33.33,26.53-32.89,41.07,1.11,36.22,68.72,58.74,92.47,66.18,15.51,4.88,32.7,9.4,51.34,13.52,30.04,6.63,63.85,12.22,100.53,16.52,16.87,1.98,34.35,3.71,52.34,5.12,40.39,3.19,83.39,4.92,128,4.92s88.76-1.77,129.62-5.04c17.98-1.44,35.44-3.17,52.29-5.18,36.26-4.31,69.68-9.86,99.39-16.44,18.6-4.12,35.74-8.64,51.22-13.52,23.66-7.43,43.41-15.68,58.48-24.55,7.33-4.31,13.53-8.75,18.55-13.34,0,0,15.44-12.69,15.13-28.19-.29-14.59-11.76-28.49-33.02-41.15-26.01-15.48-66.25-29.09-116.63-39.81l-4.26-10.88-16.89-43.18c131.5,27.57,219.91,75.92,223.75,131.23.04.51.06,1.01.09,1.52.02.3.02.59.04.89.01.11.01.21.01.32.01.12.01.25.01.37v.16c.01.17.01.35.01.52Z"/>
  <path class="cls-1" d="M811.32,756.49c-15.48,4.88-32.62,9.4-51.22,13.52l-67.26-171.39-4.69-11.97h0S498.65,103.72,498.65,103.72l-.07-.19-3.61-9.17c-3.62-5.03-9.51-8.3-16.19-8.3s-12.9,3.46-16.5,8.72l-.02.05-.04.07-.05.11c-4.61,10.32-132.68,338.58-167.33,427.47l-1.59,4.06-1.46,3.74c-.34.85-.66,1.67-.96,2.46l-1.56,3.99-.56,1.44-.26.67-.7,1.78-.4,1.01-1.11,2.86-16.57,42.36-4.58,11.69-67.16,171.54c-18.65-4.12-35.83-8.64-51.34-13.52l57.86-147.29,4.12-10.48,17.14-43.61L430.33,34.26c7.88-19.49,26.06-33.26,48.36-33.26s42.73,14.07,50.45,33.9l203.54,520.49,16.89,43.18,4.26,10.88,57.5,147.04Z"/>
  <path class="cls-1" d="M319.85,880.32c.09.01.14.1.11.18l-19.55,56.29h-.01c-3.66,11.15-14.56,19-27.16,17.98-12.97-1.05-23.38-11.8-24.06-24.8-.2-3.81.42-7.44,1.68-10.76h-.01l16.58-46.17c.02-.07.09-.11.16-.1,16.88,2.79,34.32,5.26,52.25,7.37Z"/>
  <path class="cls-1" d="M876.37,932.61c-1.9,12.64-13.01,22.16-25.8,22.25s-21.45-8.64-25.59-19.52l-33.15-84.48c-.03-.07.01-.15.09-.17,17.72-5.1,34.3-10.64,49.6-16.57.07-.03.16,0,.19.08l33.44,85.53c1.41,3.94,1.9,8.35,1.22,12.88Z"/>
  <path class="cls-1" d="M710.64,931.11c-1.26,13.31-12.7,23.7-26.07,23.75-11.97.04-22.09-7.92-25.32-18.85l-19.6-55.66s.01-.07.04-.07c17.98-2.13,35.46-4.61,52.38-7.42.03,0,.07.01.08.05l16.47,45.27h-.01c1.7,3.91,2.46,8.32,2.03,12.93Z"/>
  <path class="cls-1" d="M166.13,850.35c.19.05.29.26.22.44l-34.31,87.66-.07-.02c-4.34,11.44-17.38,18.96-30.66,16-11.45-2.55-19.88-12.73-20.41-24.44-.19-4.16.6-8.1,2.14-11.62l33.18-84.48c.07-.17.25-.25.42-.18,15.27,5.94,31.81,11.51,49.5,16.64Z"/>
  <path class="cls-1" d="M535.69,585.1l72.72,206.52,52.29-5.18-72.3-198.71h0s-4.82-13.25-4.82-13.25l-14.76-40.61h-.01l-48.04-132.05-.09-.25c-.1-.32-.22-.64-.35-.96-5.19-14.02-17.27-24.7-32.14-27.93-3.06-.67-6.24-1.02-9.51-1.02s-6.14.32-9.06.92c-15.08,3.13-27.36,13.9-32.6,28.08l-.41,1.16-47.4,132.03h-.01l-14.61,40.72-4.71,13.12-71.44,198.95,52.34,5.12,71.77-206.67,4.67-13.43,13.94-40.12s26.96-76.7,27.78-78.45c.09,0,3.64-5.44,9.74-5.44,4.22,0,8.33,2.16,10.49,5.43.01.01,46.5,132.04,46.5,132.04Z"/>
</svg>